<?xml version="1.0" encoding="utf-8"?>
<!-- Generator: Adobe Illustrator 22.1.0, SVG Export Plug-In . SVG Version: 6.00 Build 0)  -->
<svg version="1.1" id="Warstwa_1" xmlns="http://www.w3.org/2000/svg" xmlns:xlink="http://www.w3.org/1999/xlink" x="0px" y="0px"
	 viewBox="0 0 280.8 92.3" style="enable-background:new 0 0 280.8 92.3;" xml:space="preserve">
<style type="text/css">
	.st0{fill:#70BD89;}
</style>
<g>
	<path class="st0" d="M31.1,51.9l-10.7-10c-0.7-0.7-1.1-2.2-1.1-4.4c0-2.1,0.4-3.6,1.1-4.3l10.7-10v9.5l-5.2,4.8l5.2,4.9V51.9z"/>
	<path class="st0" d="M68.9,69.2H35.7V25.7h22.4V12.9h10.8V69.2z M58.1,54.9V40H46.5v14.9H58.1z"/>
	<path class="st0" d="M106.4,69.1l-22.7,0.1c-4.5,0-7.5-1.2-9-3.6c-1.1-1.8-1.6-5.1-1.6-9.9v-30h33.3v26.2L83.9,52
		c-0.1,0.3-0.1,0.6-0.1,0.9c0,1.9,1.1,2.9,3.2,2.9c1.8,0,8.3,0,19.4-0.1V69.1z M95.6,43.2V39H83.9v4.2H95.6z"/>
	<path class="st0" d="M145.8,25.7L134,69.2h-13.4l-11.8-43.5h11.9l6.6,25l6.5-25H145.8z"/>
	<path class="st0" d="M182,69.2h-22.4v12.7h-10.8V25.7H182V69.2z M171.2,54.8V40h-11.6v14.8H171.2z"/>
	<path class="st0" d="M219.9,69.1l-22.7,0.1c-4.5,0-7.5-1.2-9-3.6c-1.1-1.8-1.6-5.1-1.6-9.9v-30h33.3v26.2L197.4,52
		c-0.1,0.3-0.1,0.6-0.1,0.9c0,1.9,1.1,2.9,3.2,2.9c1.8,0,8.3,0,19.4-0.1V69.1z M209.1,43.2V39h-11.7v4.2H209.1z"/>
	<path class="st0" d="M243.3,69.2h-18.6V13h10.7v12.7h5.4V40h-5.4v14.9h7.9V69.2z"/>
	<path class="st0" d="M259.3,37.5c0,2.2-0.4,3.7-1.2,4.4l-10.6,10v-9.5l5.1-4.9l-5.1-4.8v-9.5l10.6,10
		C258.9,33.9,259.3,35.4,259.3,37.5z"/>
</g>
</svg>
