<?xml version="1.0" encoding="utf-8"?>
<!-- Generator: Adobe Illustrator 22.1.0, SVG Export Plug-In . SVG Version: 6.00 Build 0)  -->
<svg version="1.1" id="Warstwa_1" xmlns="http://www.w3.org/2000/svg" xmlns:xlink="http://www.w3.org/1999/xlink" x="0px" y="0px"
	 viewBox="0 0 500 500" style="enable-background:new 0 0 500 500;" xml:space="preserve">
<style type="text/css">
	.st0{clip-path:url(#SVGID_2_);fill:#7DBC51;}
	.st1{clip-path:url(#SVGID_4_);fill:#70431A;}
	.st2{clip-path:url(#SVGID_6_);fill:#AD5F1F;}
	.st3{clip-path:url(#SVGID_8_);fill:#AD5F1F;}
	.st4{clip-path:url(#SVGID_10_);fill:#AD5F1F;}
	.st5{clip-path:url(#SVGID_12_);fill:#AD5F1F;}
	.st6{clip-path:url(#SVGID_12_);fill:#28823B;}
	.st7{clip-path:url(#SVGID_12_);fill:#5BB13F;}
	.st8{clip-path:url(#SVGID_14_);fill:#5BB13F;}
</style>
<g>
	<defs>
		<rect id="SVGID_1_" x="44.8" y="43.9" width="405.9" height="412.2"/>
	</defs>
	<clipPath id="SVGID_2_">
		<use xlink:href="#SVGID_1_"  style="overflow:visible;"/>
	</clipPath>
	<polyline class="st0" points="304.6,151.5 304.6,133.5 320.8,133.5 320.8,151.5 304.6,151.5 	"/>
	<polyline class="st0" points="320.8,133.5 320.8,151.5 304.6,151.5 304.6,133.5 320.8,133.5 	"/>
	<polyline class="st0" points="272.1,133.5 272.1,115.6 288.3,115.6 288.3,133.5 272.1,133.5 	"/>
	<polyline class="st0" points="288.3,115.6 288.3,133.5 272.1,133.5 272.1,115.6 288.3,115.6 	"/>
	<polyline class="st0" points="288.3,133.5 288.3,115.6 304.6,115.6 304.6,133.5 288.3,133.5 	"/>
	<polyline class="st0" points="304.6,115.6 304.6,133.5 288.3,133.5 288.3,115.6 304.6,115.6 	"/>
	<polyline class="st0" points="93.5,169.4 93.5,133.5 109.7,133.5 109.7,115.6 158.4,115.6 158.4,79.8 174.7,79.8 174.6,61.8 
		223.4,61.8 223.4,43.9 272.1,43.9 272.1,61.8 337,61.8 337,79.8 369.5,79.8 369.5,115.6 418.2,115.6 418.2,133.5 369.5,133.5 
		369.5,151.5 337,151.5 337,115.6 320.8,115.6 320.8,97.7 288.3,97.7 288.3,79.8 255.8,79.8 255.8,97.7 272.1,97.7 272.1,115.6 
		239.6,115.6 239.6,97.7 207.1,97.7 207.1,115.6 190.9,115.6 190.9,133.5 142.2,133.5 142.2,151.5 109.7,151.5 109.7,169.4 
		93.5,169.4 	"/>
	<polyline class="st0" points="418.2,115.6 418.2,133.5 369.5,133.5 369.5,151.5 337,151.5 337,115.6 320.8,115.6 320.8,97.7 
		288.3,97.7 288.3,79.8 255.8,79.8 255.8,97.7 272.1,97.7 272.1,115.6 239.6,115.6 239.6,97.7 207.1,97.7 207.1,115.6 190.9,115.6 
		190.9,133.5 142.2,133.5 142.2,151.5 109.7,151.5 109.7,169.4 93.5,169.4 93.5,133.5 109.7,133.5 109.7,115.6 158.4,115.6 
		158.4,79.8 174.7,79.8 174.7,61.8 223.4,61.8 223.4,43.9 272.1,43.9 272.1,61.8 337,61.8 337,79.8 369.5,79.8 369.5,115.6 
		418.2,115.6 	"/>
	<polyline class="st0" points="418.2,187.3 418.2,169.4 402,169.4 402,151.5 418.2,151.4 418.2,133.5 434.4,133.5 434.5,187.3 
		418.2,187.3 	"/>
	<polyline class="st0" points="434.4,133.5 434.4,187.3 418.2,187.3 418.2,169.4 402,169.4 402,151.5 418.2,151.5 418.2,133.5 
		434.4,133.5 	"/>
</g>
<g>
	<defs>
		<rect id="SVGID_3_" x="255.5" y="294.4" width="82.1" height="161.7"/>
	</defs>
	<clipPath id="SVGID_4_">
		<use xlink:href="#SVGID_3_"  style="overflow:visible;"/>
	</clipPath>
	<polyline class="st1" points="288.3,456.1 288.3,438.2 272.1,438.2 272.1,402.4 255.8,402.4 255.8,384.4 272.1,384.4 272.1,366.5 
		255.8,366.5 255.8,348.6 272.1,348.6 272.1,312.8 304.6,312.7 304.6,294.8 337,294.8 337,312.8 320.8,312.8 320.8,330.7 
		288.3,330.7 288.3,420.3 304.6,420.3 304.6,438.2 320.8,438.2 320.8,456.1 288.3,456.1 	"/>
	<polyline class="st1" points="337,294.8 337,312.8 320.8,312.8 320.8,330.7 288.3,330.7 288.3,420.3 304.6,420.3 304.6,438.2 
		320.8,438.2 320.8,456.1 288.3,456.1 288.3,438.2 272.1,438.2 272.1,402.4 255.8,402.4 255.8,384.4 272.1,384.4 272.1,366.5 
		255.8,366.5 255.8,348.6 272.1,348.6 272.1,312.8 304.6,312.8 304.6,294.8 337,294.8 	"/>
</g>
<g>
	<defs>
		<rect id="SVGID_5_" x="190.6" y="276.5" width="98.3" height="179.6"/>
	</defs>
	<clipPath id="SVGID_6_">
		<use xlink:href="#SVGID_5_"  style="overflow:visible;"/>
	</clipPath>
	<polyline class="st2" points="207.1,456.1 207.1,438.2 223.4,438.2 223.4,420.3 239.6,420.3 239.6,348.6 207.1,348.6 207.1,330.7 
		223.4,330.7 223.4,312.8 190.9,312.8 190.9,276.9 207.1,276.9 207.1,294.8 239.6,294.8 239.6,312.8 272.1,312.7 272.1,348.6 
		255.8,348.6 255.8,366.5 272.1,366.5 272.1,384.4 255.8,384.4 255.8,402.4 272.1,402.3 272.1,438.2 288.3,438.2 288.3,456.1 
		207.1,456.1 	"/>
	<polyline class="st2" points="288.3,438.2 288.3,456.1 207.1,456.1 207.1,438.2 223.4,438.2 223.4,420.3 239.6,420.3 239.6,348.6 
		207.1,348.6 207.1,330.7 223.4,330.7 223.4,312.8 190.9,312.8 190.9,276.9 207.1,276.9 207.1,294.8 239.6,294.8 239.6,312.8 
		272.1,312.8 272.1,348.6 255.8,348.6 255.8,366.5 272.1,366.5 272.1,384.4 255.8,384.4 255.8,402.4 272.1,402.4 272.1,438.2 
		288.3,438.2 	"/>
</g>
<g>
	<defs>
		<rect id="SVGID_7_" x="44.8" y="43.9" width="405.9" height="412.2"/>
	</defs>
	<clipPath id="SVGID_8_">
		<use xlink:href="#SVGID_7_"  style="overflow:visible;"/>
	</clipPath>
	<polyline class="st3" points="223.4,420.3 223.4,366.5 190.9,366.5 190.9,348.6 158.4,348.6 158.4,330.7 207.1,330.7 207.1,348.6 
		239.6,348.6 239.6,420.3 223.4,420.3 	"/>
	<polyline class="st3" points="239.6,348.6 239.6,420.3 223.4,420.3 223.4,366.5 190.9,366.5 190.9,348.6 158.4,348.6 158.4,330.7 
		207.1,330.7 207.1,348.6 239.6,348.6 	"/>
</g>
<g>
	<defs>
		<rect id="SVGID_9_" x="190.6" y="437.5" width="17.2" height="18.6"/>
	</defs>
	<clipPath id="SVGID_10_">
		<use xlink:href="#SVGID_9_"  style="overflow:visible;"/>
	</clipPath>
	<polyline class="st4" points="190.9,456.1 190.9,438.2 207.1,438.2 207.1,456.1 190.9,456.1 	"/>
	<polyline class="st4" points="190.9,438.2 207.1,438.2 207.1,456.1 190.9,456.1 190.9,438.2 	"/>
</g>
<g>
	<defs>
		<rect id="SVGID_11_" x="44.8" y="43.9" width="405.9" height="412.2"/>
	</defs>
	<clipPath id="SVGID_12_">
		<use xlink:href="#SVGID_11_"  style="overflow:visible;"/>
	</clipPath>
	<polyline class="st5" points="207.1,438.2 207.1,420.3 223.4,420.3 223.4,438.2 207.1,438.2 	"/>
	<polyline class="st5" points="207.1,420.3 223.4,420.3 223.4,438.2 207.1,438.2 207.1,420.3 	"/>
	<polyline class="st6" points="174.7,366.5 174.6,348.6 190.9,348.6 190.9,366.5 174.7,366.5 	"/>
	<polyline class="st6" points="174.7,348.6 190.9,348.6 190.9,366.5 174.7,366.5 174.7,348.6 	"/>
	<polyline class="st6" points="142.2,366.5 142.2,348.6 158.4,348.6 158.4,366.5 142.2,366.5 	"/>
	<polyline class="st6" points="142.2,366.5 142.2,348.6 158.4,348.6 158.4,366.5 142.2,366.5 	"/>
	<polyline class="st6" points="304.6,366.5 304.6,348.6 288.3,348.6 288.3,330.7 320.8,330.7 320.8,312.8 337,312.7 337,294.8 
		304.6,294.8 304.6,259 337,259 337,241.1 353.3,241 353.3,223.1 369.5,223.1 369.5,205.2 385.7,205.2 385.7,223.1 402,223.1 
		402,241.1 385.7,241.1 385.7,259 369.5,259 369.5,276.9 353.3,276.9 353.3,294.8 385.7,294.8 385.7,276.9 418.2,276.9 418.2,312.8 
		402,312.8 402,330.7 385.7,330.7 385.7,348.6 369.5,348.6 369.5,330.7 353.3,330.7 353.3,348.6 337,348.6 337,366.5 304.6,366.5 	
		"/>
	<polyline class="st6" points="418.2,276.9 418.2,312.8 402,312.8 402,330.7 385.7,330.7 385.7,348.6 369.5,348.6 369.5,330.7 
		353.3,330.7 353.3,348.6 337,348.6 337,366.5 304.6,366.5 304.6,348.6 288.3,348.6 288.3,330.7 320.8,330.7 320.8,312.8 337,312.8 
		337,294.8 304.6,294.8 304.6,259 337,259 337,241.1 353.3,241.1 353.3,223.1 369.5,223.1 369.5,205.2 385.7,205.2 385.7,223.1 
		402,223.1 402,241.1 385.7,241.1 385.7,259 369.5,259 369.5,276.9 353.3,276.9 353.3,294.8 385.7,294.8 385.7,276.9 418.2,276.9 	
		"/>
	<polyline class="st6" points="125.9,348.6 125.9,330.7 109.7,330.7 109.7,312.8 93.5,312.8 93.5,294.8 77.2,294.8 77.2,276.9 
		61,276.9 61,259 93.5,259 93.5,276.9 125.9,276.9 126,294.8 158.4,294.8 158.4,312.8 174.7,312.7 174.6,276.9 158.4,276.9 
		158.4,259 174.7,259 174.6,241.1 125.9,241.1 125.9,205.2 142.2,205.2 142.2,187.3 158.4,187.3 158.4,223.1 207.1,223.1 
		207.1,241.1 239.6,241 239.6,223.1 288.3,223.1 288.3,187.3 320.8,187.3 320.8,205.2 304.6,205.2 304.6,241.1 255.8,241.1 
		255.8,294.8 304.6,294.8 304.6,312.8 239.6,312.8 239.6,294.8 207.1,294.8 207.1,276.9 190.9,276.9 190.9,312.8 223.4,312.7 
		223.4,330.7 142.2,330.7 142.2,348.6 125.9,348.6 	"/>
	<polyline class="st6" points="304.6,294.8 304.6,312.8 239.6,312.8 239.6,294.8 207.1,294.8 207.1,276.9 190.9,276.9 190.9,312.8 
		223.4,312.8 223.4,330.7 142.2,330.7 142.2,348.6 125.9,348.6 125.9,330.7 109.7,330.7 109.7,312.8 93.5,312.8 93.5,294.8 
		77.2,294.8 77.2,276.9 61,276.9 61,259 93.5,259 93.5,276.9 125.9,276.9 125.9,294.8 158.4,294.8 158.4,312.8 174.7,312.8 
		174.7,276.9 158.4,276.9 158.4,259 174.7,259 174.7,241.1 125.9,241.1 125.9,205.2 142.2,205.2 142.2,187.3 158.4,187.3 
		158.4,223.1 207.1,223.1 207.1,241.1 239.6,241.1 239.6,223.1 288.3,223.1 288.3,187.3 320.8,187.3 320.8,205.2 304.6,205.2 
		304.6,241.1 255.8,241.1 255.8,294.8 304.6,294.8 	"/>
	<polyline class="st7" points="125.9,115.6 125.9,97.7 142.2,97.7 142.2,79.8 158.4,79.8 158.4,115.6 125.9,115.6 	"/>
	<polyline class="st7" points="125.9,115.6 125.9,97.7 142.2,97.7 142.2,79.8 158.4,79.8 158.4,115.6 125.9,115.6 	"/>
	<polyline class="st7" points="223.4,276.9 223.4,259 239.6,259 239.6,276.9 223.4,276.9 	"/>
	<polyline class="st7" points="239.6,259 239.6,276.9 223.4,276.9 223.4,259 239.6,259 	"/>
	<polyline class="st7" points="337,115.6 337,97.7 353.3,97.7 353.3,115.6 337,115.6 	"/>
	<polyline class="st7" points="353.3,115.6 337,115.6 337,97.7 353.3,97.7 353.3,115.6 	"/>
	<polyline class="st7" points="369.5,115.6 369.5,79.8 385.7,79.8 385.7,97.7 402,97.7 402,115.6 369.5,115.6 	"/>
	<polyline class="st7" points="369.5,115.6 369.5,79.8 385.7,79.8 385.7,97.7 402,97.7 402,115.6 369.5,115.6 	"/>
</g>
<g>
	<defs>
		<rect id="SVGID_13_" x="44.8" y="79.7" width="405.9" height="233.7"/>
	</defs>
	<clipPath id="SVGID_14_">
		<use xlink:href="#SVGID_13_"  style="overflow:visible;"/>
	</clipPath>
	<path class="st8" d="M158.4,312.8l0-17.9l-32.5,0l0-17.9l-32.5,0l0-17.9l-48.7,0l0-17.9l16.2,0l0-53.7l16.2,0l0-35.8l16.2,0l0,17.9
		l16.2,0l0-17.9l32.5,0l0-17.9l48.7,0l0-17.9l16.2,0l0-17.9l32.5,0l0,17.9l32.5,0l0-17.9l-16.2,0l0-17.9l32.5,0l0,17.9l32.5,0
		l0,17.9l16.2,0l0,35.8l32.5,0l0-17.9l48.7,0l0,17.9l-16.2,0l0,17.9l16.2,0l0,17.9l32.5,0l0,35.9l-16.2,0l0,53.8l-48.7,0l0,17.9
		l-32.5,0l0-17.9l16.2,0l0-17.9l16.2,0l0-17.9l16.3,0l0-17.9l-16.2,0l0-17.9l-16.2,0l0,17.9l-16.2,0l0,17.9l-16.3,0l0,17.9l-32.5,0
		l0,35.8l-48.7,0l0-53.8l48.7,0l0-35.8l16.2,0l0-17.9l-32.5,0l0,35.8l-48.7,0l0,17.9l-32.5,0l0-17.9l-48.7,0l0-35.8l-16.2,0l0,17.9
		l-16.3,0l0,35.8l48.7,0l0,17.9l-16.2,0l0,17.9l16.2,0l0,35.9H158.4 M304.6,151.5l16.2,0l0-17.9l-16.2,0L304.6,151.5z M272.1,133.5
		l32.5,0l0-17.9l-32.5,0L272.1,133.5z"/>
	<polyline class="st8" points="450.7,187.3 450.7,223.1 434.4,223.1 434.4,276.9 385.7,276.9 385.7,294.8 353.3,294.8 353.3,276.9 
		369.5,276.9 369.5,259 385.7,259 385.7,241.1 402,241.1 402,223.1 385.7,223.1 385.7,205.2 369.5,205.2 369.5,223.1 353.3,223.1 
		353.3,241.1 337,241.1 337,259 304.6,259 304.6,294.8 255.8,294.8 255.8,241.1 304.6,241.1 304.6,205.2 320.8,205.2 320.8,187.3 
		288.3,187.3 288.3,223.1 239.6,223.1 239.6,241.1 207.1,241.1 207.1,223.1 158.4,223.1 158.4,187.3 142.2,187.3 142.2,205.2 
		125.9,205.2 125.9,241.1 174.7,241.1 174.7,259 158.4,259 158.4,276.9 174.7,276.9 174.7,312.8 158.4,312.8 158.4,294.8 
		125.9,294.8 125.9,276.9 93.5,276.9 93.5,259 44.8,259 44.8,241.1 61,241.1 61,187.3 77.2,187.3 77.2,151.5 93.5,151.5 93.5,169.4 
		109.7,169.4 109.7,151.5 142.2,151.5 142.2,133.5 190.9,133.5 190.9,115.6 207.1,115.6 207.1,97.7 239.6,97.7 239.6,115.6 
		272.1,115.6 272.1,133.5 304.6,133.5 304.6,151.5 320.8,151.5 320.8,133.5 304.6,133.5 304.6,115.6 272.1,115.6 272.1,97.7 
		255.8,97.7 255.8,79.8 288.3,79.8 288.3,97.7 320.8,97.7 320.8,115.6 337,115.6 337,151.5 369.5,151.5 369.5,133.5 418.2,133.5 
		418.2,151.5 402,151.5 402,169.4 418.2,169.4 418.2,187.3 450.7,187.3 	"/>
</g>
</svg>
